<svg xmlns="http://www.w3.org/2000/svg" version="1.1" xmlns:xlink="http://www.w3.org/1999/xlink" xmlns:svgjs="http://svgjs.com/svgjs" width="1440" height="560" preserveAspectRatio="none" viewBox="0 0 1440 560"><g mask="url(&quot;#SvgjsMask3057&quot;)" fill="none"><rect width="1440" height="560" x="0" y="0" fill="url(#SvgjsLinearGradient3058)"></rect><path d="M 0,236 C 41.2,271.2 123.6,448.8 206,412 C 288.4,375.2 329.6,57 412,52 C 494.4,47 535.6,351.4 618,387 C 700.4,422.6 741.6,241 824,230 C 906.4,219 947.6,340.6 1030,332 C 1112.4,323.4 1154,145.6 1236,187 C 1318,228.4 1399.2,468.6 1440,539L1440 560L0 560z" fill="rgba(138, 0, 99, 1)"></path><path d="M 0,520 C 57.6,466.6 172.8,290.2 288,253 C 403.2,215.8 460.8,341.8 576,334 C 691.2,326.2 748.8,193.8 864,214 C 979.2,234.2 1036.8,453.2 1152,435 C 1267.2,416.8 1382.4,185.4 1440,123L1440 560L0 560z" fill="rgba(89, 0, 64, 1)"></path></g><defs><mask id="SvgjsMask3057"><rect width="1440" height="560" fill="#ffffff"></rect></mask><linearGradient x1="50%" y1="0%" x2="50%" y2="100%" gradientUnits="userSpaceOnUse" id="SvgjsLinearGradient3058"><stop stop-color="rgba(89, 0, 64, 1)" offset="0"></stop><stop stop-color="rgba(255, 252, 214, 1)" offset="0.67"></stop></linearGradient></defs></svg>